<svg id="logo.svg" xmlns="http://www.w3.org/2000/svg" width="864.188" height="74.312" viewBox="0 0 864.188 74.312">
  <defs>
    <style>
      .cls-1 {
        fill: #818285;
      }

      .cls-1, .cls-2 {
        fill-rule: evenodd;
      }

      .cls-2 {
        fill: #1a78ba;
      }
    </style>
  </defs>
  <path id="BOOKREPORT" class="cls-1" d="M137.7,202.388a8.044,8.044,0,0,1-2.717,2.481,9.5,9.5,0,0,1-3.013,1.063,15.183,15.183,0,0,1-2.185.237H81.416V189.747h48.368a17.187,17.187,0,0,1,2.481.236,8.995,8.995,0,0,1,3.012,1.064,7.277,7.277,0,0,1,2.541,2.481,8.241,8.241,0,0,1,1.063,4.489A7.363,7.363,0,0,1,137.7,202.388Zm0-29.141a8.7,8.7,0,0,1-2.717,2.54,8.83,8.83,0,0,1-3.013,1.122,15.147,15.147,0,0,1-2.185.236H81.416V160.724h48.368a17.187,17.187,0,0,1,2.481.236,9.783,9.783,0,0,1,3.012,1,6.77,6.77,0,0,1,2.541,2.422,8.243,8.243,0,0,1,1.063,4.49A7.365,7.365,0,0,1,137.7,173.247Zm13.036,20.014a19.737,19.737,0,0,0-2.888-5.129,15.213,15.213,0,0,0-5.777-4.432,14.319,14.319,0,0,0,5.777-4.084,17.545,17.545,0,0,0,2.888-4.98,18.639,18.639,0,0,0,1.195-6.075,21.729,21.729,0,0,0-1.693-9.014,16.344,16.344,0,0,0-4.681-6.125,19.643,19.643,0,0,0-7.171-3.536,34.687,34.687,0,0,0-9.163-1.145H68.271v69.718h60.951a34.628,34.628,0,0,0,8.914-1.1,19.969,19.969,0,0,0,7.171-3.436,16.762,16.762,0,0,0,4.831-5.976,19.773,19.773,0,0,0,1.792-8.814,18.183,18.183,0,0,0-1.195-5.876h0Zm248.61,24.517-40.421-39.15,40.659-29.887H378.306l-44.42,33.265V148.741H320.493v69.718h13.393l0.026-21.028,14.944-11.095,31.672,31.442h18.817Zm76.7-40.678a11.453,11.453,0,0,1-3.255,3.394,12.565,12.565,0,0,1-3.671,1.732,11.456,11.456,0,0,1-2.632.485H421.809V160.684H466.49a14.549,14.549,0,0,1,2.978.416,11.144,11.144,0,0,1,3.671,1.593,9.71,9.71,0,0,1,3.048,3.325,11.105,11.105,0,0,1,1.247,5.61A9.93,9.93,0,0,1,476.048,177.1Zm11.666-16.855a20.9,20.9,0,0,0-6.075-6.972,22.562,22.562,0,0,0-7.52-3.536,28.176,28.176,0,0,0-6.723-1H408.059v69.718H421.51v-23.8h41.457l11.155,23.8H488.71l-12.151-25.8a24.779,24.779,0,0,0,4.93-2.689,19.518,19.518,0,0,0,4.383-4.233,21.1,21.1,0,0,0,3.137-6.025,24.853,24.853,0,0,0,1.195-8.068Q490.2,164.679,487.714,160.245Zm86.625,58.214V206.315H515.245V189.047h48.537v-11.89H515.245V160.472H571.75V148.741H502.265v69.718h72.074Zm78.176-41.4a11.385,11.385,0,0,1-3.23,3.367,12.432,12.432,0,0,1-3.642,1.718,11.331,11.331,0,0,1-2.611.481H599.291V160.77h43.741a14.415,14.415,0,0,1,2.955.412,11.043,11.043,0,0,1,3.642,1.581,9.631,9.631,0,0,1,3.024,3.3,11.025,11.025,0,0,1,1.237,5.567A9.851,9.851,0,0,1,652.515,177.057ZM663.9,160.245a20.9,20.9,0,0,0-6.075-6.972,22.562,22.562,0,0,0-7.52-3.536,28.176,28.176,0,0,0-6.723-1H585.9v69.718h13.393v-23.8h44.29a26.971,26.971,0,0,0,6.474-1,22.605,22.605,0,0,0,7.52-3.585A22.035,22.035,0,0,0,663.8,183a22.448,22.448,0,0,0,2.59-11.354Q666.393,164.679,663.9,160.245Zm85.068,33.286a23.171,23.171,0,0,1-6.156,8.305,30.114,30.114,0,0,1-10.337,5.691,51.05,51.05,0,0,1-28.922,0,30.077,30.077,0,0,1-10.337-5.691,23.124,23.124,0,0,1-6.156-8.305,25.272,25.272,0,0,1,0-19.862,23.141,23.141,0,0,1,6.156-8.305,30.11,30.11,0,0,1,10.337-5.691,51.05,51.05,0,0,1,28.922,0,30.147,30.147,0,0,1,10.337,5.691,23.188,23.188,0,0,1,6.156,8.305A25.272,25.272,0,0,1,748.971,193.531Zm12.57-24.223a34.912,34.912,0,0,0-9.213-11.8,45.569,45.569,0,0,0-14.691-8.068,65.912,65.912,0,0,0-39.241,0,45.553,45.553,0,0,0-14.69,8.068,34.875,34.875,0,0,0-9.213,11.8,33.64,33.64,0,0,0,0,28.584,34.875,34.875,0,0,0,9.213,11.8,45.553,45.553,0,0,0,14.69,8.068,65.912,65.912,0,0,0,39.241,0,45.569,45.569,0,0,0,14.691-8.068,34.912,34.912,0,0,0,9.213-11.8A33.64,33.64,0,0,0,761.541,169.308Zm170.925-8.836V148.741H859.735v11.731h29.719v57.987h13.293V160.472h29.719ZM840.674,177.1a11.456,11.456,0,0,1-3.256,3.394,12.542,12.542,0,0,1-3.671,1.732,11.447,11.447,0,0,1-2.632.485h-44.68V160.684h44.68a14.557,14.557,0,0,1,2.979.416,11.153,11.153,0,0,1,3.671,1.593,9.708,9.708,0,0,1,3.047,3.325,11.1,11.1,0,0,1,1.247,5.61A9.93,9.93,0,0,1,840.674,177.1Zm11.666-16.855a20.905,20.905,0,0,0-6.076-6.972,22.548,22.548,0,0,0-7.519-3.536,28.176,28.176,0,0,0-6.723-1H772.684v69.718h13.451v-23.8h41.458l11.154,23.8h14.589l-12.151-25.8a24.807,24.807,0,0,0,4.93-2.689,19.535,19.535,0,0,0,4.382-4.233,21.078,21.078,0,0,0,3.138-6.025,24.88,24.88,0,0,0,1.2-8.068Q854.83,164.679,852.34,160.245Z" transform="translate(-68.281 -146.438)"/>
  <path id="favicon" class="cls-2" d="M277.3,217.264c-12.475,0-28.989-13.6-39.635-23.822l7.662-7.662,7.792,7.129s13.389,12.98,24.753,12.98,21.267-9.007,21.267-23.906S287.88,157.92,275.454,157.92s-19.349,9.334-19.349,9.334l-0.287.307v-7.1h-7.9l1.639-1.722s10.047-12.117,26.2-12.117,34.6,15.094,34.6,34.7C310.361,203.33,295.222,217.264,277.3,217.264Zm-25.026-52.232v14.191l-3.292-3.293-13.769,15.62s-21.559,25.714-40.67,25.714c-19.981,0-34.3-13.934-34.3-35.945a34.132,34.132,0,0,1,33.98-34.7c16.158,0,25.587,12.117,25.587,12.117L233.9,173.488l-7.431,7.43-13.2-13.664a24.2,24.2,0,0,0-18.937-9.334c-12.426,0-22.861,9.163-22.861,24.063s12.167,24.73,23.532,24.73,23.723-12.362,23.723-12.362l23.264-25.414-3.9-3.905h14.19Z" transform="translate(-68.281 -146.438)"/>
</svg>
