<svg xmlns="http://www.w3.org/2000/svg" width="153" height="72" viewBox="0 0 153 72">
  <defs>
    <style>
      .cls-1 {
        fill: #0078ba;
        fill-rule: evenodd;
      }
    </style>
  </defs>
  <path id="logo-collapsed.svg" class="cls-1" d="M801.308,219.481c-12.717,0-29.549-13.866-40.4-24.283l7.811-7.811,7.943,7.268s13.647,13.231,25.231,13.231,21.678-9.181,21.678-24.369-11.477-24.528-24.142-24.528S779.7,168.5,779.7,168.5l-0.292.313V161.58h-8.052l1.671-1.755s10.241-12.351,26.712-12.351,35.266,15.385,35.266,35.366C835.008,205.278,819.577,219.481,801.308,219.481ZM775.8,166.239V180.7l-3.356-3.356L758.407,193.27s-21.976,26.211-41.456,26.211c-20.368,0-34.959-14.2-34.959-36.641a34.791,34.791,0,0,1,34.637-35.366c16.47,0,26.082,12.351,26.082,12.351l14.358,15.033-7.574,7.574L736.037,168.5a24.668,24.668,0,0,0-19.3-9.514c-12.666,0-23.3,9.341-23.3,24.528s12.4,25.208,23.987,25.208,24.182-12.6,24.182-12.6l23.713-25.9-3.98-3.98H775.8Z" transform="translate(-682 -147.469)"/>
</svg>
