<svg xmlns="http://www.w3.org/2000/svg" xmlns:xlink="http://www.w3.org/1999/xlink" preserveAspectRatio="xMidYMid" width="37.719" height="34" viewBox="0 0 37.719 34">
  <defs>
    <style>
      .cls-1 {
        fill: #389ceb;
      }

      .cls-1, .cls-2 {
        fill-rule: evenodd;
      }

      .cls-2 {
        fill: #fff;
      }
    </style>
  </defs>
  <g>
    <path d="M20.718,34.001 C15.221,34.001 10.348,31.381 7.240,27.334 L7.240,27.390 L6.641,26.533 C6.632,26.519 6.622,26.506 6.612,26.492 L0.004,17.044 L6.219,8.157 C9.206,3.272 14.573,-0.000 20.718,-0.000 C30.107,-0.000 37.719,7.611 37.719,17.001 C37.719,26.390 30.107,34.001 20.718,34.001 Z" class="cls-1"/>
    <path d="M13.698,15.989 L13.698,17.980 L19.675,17.980 L19.675,23.961 L21.730,23.961 L21.730,17.980 L27.690,17.980 L27.690,15.989 L21.757,15.989 L21.757,10.008 L19.716,10.008 L19.716,15.989 L13.698,15.989 Z" class="cls-2"/>
  </g>
</svg>
