<svg xmlns="http://www.w3.org/2000/svg" xmlns:xlink="http://www.w3.org/1999/xlink" preserveAspectRatio="xMidYMid" width="27.031" height="27.656" viewBox="0 0 27.031 27.656">
  <defs>
    <style>
      .cls-1 {
        fill: #1682d8;
        fill-rule: evenodd;
      }
    </style>
  </defs>
  <path d="M25.466,16.203 C24.607,16.203 23.910,16.897 23.910,17.753 L23.910,24.558 L3.113,24.558 L3.113,17.753 C3.113,16.897 2.417,16.203 1.557,16.203 C0.698,16.203 0.001,16.897 0.001,17.753 L0.001,26.107 C0.001,26.963 0.698,27.657 1.557,27.657 L25.466,27.657 C26.326,27.657 27.022,26.963 27.022,26.107 L27.022,17.753 C27.022,16.897 26.326,16.203 25.466,16.203 L25.466,16.203 ZM12.411,19.699 C12.703,19.989 13.099,20.153 13.512,20.153 C13.924,20.153 14.320,19.990 14.612,19.699 L20.887,13.450 C21.495,12.845 21.495,11.864 20.887,11.259 C20.280,10.653 19.294,10.653 18.687,11.259 L15.068,14.862 L15.068,1.561 C15.068,0.705 14.371,0.012 13.512,0.012 C12.652,0.012 11.955,0.705 11.955,1.561 L11.955,14.862 L8.338,11.259 C7.730,10.654 6.744,10.654 6.137,11.259 C5.529,11.864 5.529,12.845 6.136,13.450 L12.411,19.699 Z" class="cls-1"/>
</svg>
