<svg xmlns="http://www.w3.org/2000/svg" xmlns:xlink="http://www.w3.org/1999/xlink" preserveAspectRatio="xMidYMid" width="12" height="12" viewBox="0 0 12 12">
  <defs>
    <style>
      .cls-1 {
        fill: #585858;
        fill-rule: evenodd;
      }
    </style>
  </defs>
  <path d="M12.000,11.310 L11.310,12.000 L8.167,8.857 C7.305,9.566 6.200,9.992 4.996,9.992 C2.237,9.992 0.000,7.755 0.000,4.996 C0.000,2.237 2.237,0.000 4.996,0.000 C7.755,0.000 9.992,2.237 9.992,4.996 C9.992,6.200 9.566,7.305 8.857,8.167 L12.000,11.310 ZM4.990,0.975 C2.773,0.975 0.975,2.773 0.975,4.990 C0.975,7.207 2.773,9.005 4.990,9.005 C7.207,9.005 9.005,7.207 9.005,4.990 C9.005,2.773 7.207,0.975 4.990,0.975 Z" class="cls-1"/>
</svg>
