<svg xmlns="http://www.w3.org/2000/svg" xmlns:xlink="http://www.w3.org/1999/xlink" preserveAspectRatio="xMidYMid" width="153" height="72" viewBox="0 0 153 72">
  <defs>
    <style>
      .cls-1 {
        fill: #0078ba;
        fill-rule: evenodd;
      }
    </style>
  </defs>
  <path d="M119.308,72.012 C106.591,72.012 89.759,58.146 78.906,47.729 L86.717,39.918 L94.660,47.186 C94.660,47.186 108.307,60.417 119.891,60.417 C131.476,60.417 141.569,51.236 141.569,36.048 C141.569,20.861 130.092,11.520 117.427,11.520 C104.761,11.520 97.703,21.034 97.703,21.034 C97.703,21.034 97.593,21.152 97.411,21.347 L97.411,14.111 L89.359,14.111 L91.030,12.356 C91.030,12.356 101.271,0.005 117.742,0.005 C134.212,0.005 153.008,15.390 153.008,35.371 C153.008,57.809 137.577,72.012 119.308,72.012 ZM93.798,18.770 L93.798,33.235 L90.442,29.879 L76.407,45.801 C76.407,45.801 54.431,72.012 34.951,72.012 C14.583,72.012 -0.008,57.809 -0.008,35.371 C-0.008,12.934 18.158,0.005 34.629,0.005 C51.099,0.005 60.711,12.356 60.711,12.356 L75.069,27.389 L67.495,34.963 L54.037,21.034 C54.037,21.034 47.400,11.520 34.734,11.520 C22.068,11.520 11.431,20.861 11.431,36.048 C11.431,51.236 23.833,61.256 35.418,61.256 C47.002,61.256 59.600,48.655 59.600,48.655 L83.313,22.750 L79.333,18.770 L93.798,18.770 Z" class="cls-1"/>
</svg>
