<svg xmlns="http://www.w3.org/2000/svg" xmlns:xlink="http://www.w3.org/1999/xlink" preserveAspectRatio="xMidYMid" width="864.218" height="75.719" viewBox="0 0 864.218 75.719">
  <defs>
    <style>
      .cls-1 {
        fill: #a1a2a6;
      }

      .cls-1, .cls-2 {
        fill-rule: evenodd;
      }

      .cls-2 {
        fill: #0078ba;
      }
    </style>
  </defs>
  <g>
    <path d="M852.236,64.566 C849.986,67.049 846.420,69.181 841.534,70.965 C836.182,72.904 830.637,73.873 824.898,73.873 L776.271,73.873 L776.271,2.328 L822.571,2.328 C835.135,2.328 845.216,5.625 852.818,12.216 C860.418,18.809 864.219,27.263 864.219,37.577 C864.219,46.962 860.223,55.958 852.236,64.566 ZM842.232,21.381 C837.578,17.055 831.373,14.892 823.618,14.892 L790.231,14.892 L790.231,61.309 L825.829,61.309 C832.652,61.309 838.256,59.166 842.639,54.880 C847.020,50.594 849.212,45.137 849.212,38.510 C849.212,31.417 846.885,25.707 842.232,21.381 ZM570.094,73.873 L552.998,14.034 L535.903,73.873 L519.147,73.873 L494.830,2.328 L510.302,2.328 L527.519,61.774 L544.622,2.328 L561.372,2.328 L578.475,61.771 L595.690,2.328 L611.163,2.328 L586.847,73.873 L570.094,73.873 ZM471.946,73.873 L453.214,47.582 L417.676,47.582 L417.676,73.873 L403.717,73.873 L403.717,2.328 L461.534,2.328 C469.134,2.328 475.183,4.384 479.682,8.494 C484.179,12.605 486.429,18.111 486.429,25.013 C486.429,36.879 480.496,44.132 468.630,46.767 L487.942,73.873 L471.946,73.873 ZM472.120,25.249 C472.120,18.346 467.621,14.892 458.626,14.892 L417.676,14.892 L417.676,35.018 L459.440,35.018 C467.892,35.018 472.120,31.762 472.120,25.249 ZM370.318,58.517 L322.242,58.517 L314.010,73.873 L298.643,73.873 L337.613,2.328 L354.948,2.328 L393.918,73.873 L378.551,73.873 L370.318,58.517 ZM346.347,14.261 L329.218,45.953 L363.342,45.953 L346.347,14.261 ZM271.769,70.965 C266.418,72.904 260.872,73.873 255.134,73.873 L206.507,73.873 L206.507,2.328 L252.807,2.328 C265.371,2.328 275.452,5.625 283.054,12.216 C290.654,18.809 294.454,27.263 294.454,37.577 C294.454,46.962 290.459,55.958 282.472,64.566 C280.222,67.049 276.656,69.181 271.769,70.965 ZM272.468,21.381 C267.814,17.055 261.609,14.892 253.854,14.892 L220.467,14.892 L220.467,61.309 L256.065,61.309 C262.888,61.309 268.492,59.166 272.875,54.880 C277.255,50.594 279.448,45.137 279.448,38.510 C279.448,31.417 277.121,25.707 272.468,21.381 ZM112.463,2.328 L186.800,2.328 L186.800,14.892 L126.423,14.892 L126.423,30.364 L168.419,30.364 L168.419,42.928 L126.423,42.928 L126.423,61.309 L189.475,61.309 L189.475,73.873 L112.463,73.873 L112.463,2.328 ZM47.923,12.565 C37.762,12.565 29.659,14.907 23.609,19.587 C17.560,24.270 14.535,30.324 14.535,37.752 C14.535,45.413 17.560,51.564 23.609,56.207 C29.659,60.849 37.840,63.170 48.156,63.170 C60.098,63.170 69.832,59.293 77.355,51.537 L89.337,57.935 C78.789,69.801 64.946,75.734 47.807,75.734 C33.536,75.734 21.999,72.186 13.198,65.090 C4.394,57.993 -0.006,48.901 -0.006,37.810 C-0.006,26.255 4.996,16.832 15.001,9.541 C23.686,3.182 34.350,0.002 46.992,0.002 C64.751,0.002 79.060,6.516 89.919,19.545 L77.122,23.966 C69.445,16.366 59.711,12.565 47.923,12.565 Z" class="cls-1"/>
    <path d="M732.996,73.075 C720.279,73.075 703.446,59.209 692.594,48.792 L700.404,40.981 L708.347,48.249 C708.347,48.249 721.995,61.480 733.579,61.480 C745.163,61.480 755.257,52.299 755.257,37.111 C755.257,21.924 743.780,12.583 731.114,12.583 C718.448,12.583 711.391,22.097 711.391,22.097 C711.391,22.097 711.281,22.215 711.098,22.410 L711.098,15.174 L703.047,15.174 L704.717,13.419 C704.717,13.419 714.959,1.068 731.429,1.068 C747.899,1.068 766.696,16.453 766.696,36.434 C766.696,58.872 751.264,73.075 732.996,73.075 ZM707.486,19.833 L707.486,34.298 L704.130,30.942 L690.095,46.864 C690.095,46.864 668.119,73.075 648.639,73.075 C628.271,73.075 613.679,58.872 613.679,36.434 C613.679,13.997 631.846,1.068 648.316,1.068 C664.787,1.068 674.398,13.419 674.398,13.419 L688.756,28.452 L681.182,36.026 L667.725,22.097 C667.725,22.097 661.087,12.583 648.421,12.583 C635.755,12.583 625.118,21.924 625.118,37.111 C625.118,52.299 637.521,62.319 649.105,62.319 C660.689,62.319 673.287,49.718 673.287,49.718 L697.001,23.813 L693.021,19.833 L707.486,19.833 Z" class="cls-2"/>
  </g>
</svg>
